<svg width="213" height="206" viewBox="0 0 213 206" fill="none" xmlns="http://www.w3.org/2000/svg">
<path fill-rule="evenodd" clip-rule="evenodd" d="M62.2266 52.8003C93.3955 65.7116 97.7562 99.4661 86.6682 129.308C86.1613 130.597 85.7235 131.912 85.3567 133.248C83.1059 141.558 83.2276 150.329 85.7078 158.563C88.188 166.797 92.9271 174.162 99.3854 179.821C103.146 183.083 107.414 185.708 112.021 187.593C117.566 189.9 123.511 191.09 129.52 191.094C135.528 191.097 141.48 189.915 147.037 187.613C152.593 185.312 157.645 181.937 161.904 177.682C166.163 173.426 169.546 168.373 171.858 162.812C181.542 139.434 170.736 111.976 147.072 102.977C114.645 90.5768 84.8397 81.5207 94.4543 35.6907C94.7294 34.2331 94.8927 32.7568 94.9427 31.2746C94.9988 26.5334 93.6409 21.8863 91.0431 17.9288C88.4453 13.9713 84.7259 10.8838 80.3614 9.06173C79.2755 8.63595 78.1627 8.28232 77.0301 8.00319C71.5413 6.60781 65.7304 7.24124 60.6613 9.78753C55.5922 12.3338 51.604 16.6226 49.4269 21.8687C48.2362 24.7459 47.6227 27.8289 47.6217 30.9413C47.6207 34.0538 48.2321 37.1346 49.421 40.0076C50.6098 42.8805 52.3528 45.4892 54.5501 47.6843C56.7474 49.8794 59.356 51.6179 62.2266 52.8003Z" fill="#91C140"/>
<circle cx="48" cy="98" r="15" fill="#05B2AF"/>
</svg>
