<svg width="258" height="258" viewBox="0 0 258 258" fill="none" xmlns="http://www.w3.org/2000/svg">
<path fill-rule="evenodd" clip-rule="evenodd" d="M278.021 170.691C216.246 178.81 178.088 128.824 168.251 70.8347C167.871 68.304 167.356 65.7953 166.709 63.3195V63.3195C162.631 47.9444 154.334 34.0215 142.76 23.136C131.187 12.2505 116.803 4.84 101.247 1.74828V1.74828C92.2182 0.000760164 82.9677 -0.259005 73.8594 0.979191C62.8607 2.40561 52.2527 5.99207 42.6411 11.5338C33.0296 17.0754 24.6029 24.4637 17.8424 33.2766C11.082 42.0896 6.12015 52.1544 3.24041 62.8963C0.360674 73.6382 -0.380573 84.8466 1.05903 95.8814C7.16975 142.23 49.8185 176.19 95.9773 168.74C159.291 158.642 215.324 145.613 242.288 227.826C243.194 230.412 244.297 232.925 245.586 235.343C249.877 242.982 256.342 249.164 264.152 253.098C271.963 257.032 280.764 258.538 289.427 257.424C291.557 257.103 293.663 256.641 295.732 256.042C305.799 253.207 314.507 246.828 320.261 238.073C326.016 229.318 328.432 218.773 327.067 208.368C326.313 202.665 324.446 197.165 321.572 192.184C318.698 187.203 314.874 182.837 310.319 179.338C305.763 175.838 300.566 173.273 295.024 171.79C289.482 170.306 283.704 169.933 278.021 170.691Z" fill="#91C140"/>
</svg>
