<svg width="127" height="116" viewBox="0 0 127 116" fill="none" xmlns="http://www.w3.org/2000/svg">
<path fill-rule="evenodd" clip-rule="evenodd" d="M109.01 80.06C83.3615 80.06 70.4779 57.6561 69.5834 33.5083C69.5645 32.4571 69.4893 31.4077 69.3584 30.3645V30.3645C68.5215 23.8835 65.8841 17.7679 61.7465 12.7143C57.6088 7.66064 52.1371 3.87202 45.9546 1.77984V1.77984C42.3637 0.584649 38.6023 -0.016399 34.8184 0.000340225C30.2527 -0.0074553 25.7303 0.885522 21.5094 2.62828C17.2885 4.37104 13.4518 6.92943 10.2184 10.1573C6.98507 13.3852 4.41844 17.2193 2.66514 21.4407C0.911845 25.6621 0.00621782 30.188 0 34.7599C0 53.9666 15.5788 70.083 34.8184 69.5195C61.2017 68.7958 84.7713 66.4884 91.3523 101.42C91.5832 102.522 91.8981 103.605 92.2942 104.659C93.6343 108 95.94 110.864 98.9161 112.885C101.892 114.905 105.403 115.99 108.998 116C109.885 115.983 110.77 115.908 111.646 115.775C115.907 115.159 119.805 113.027 122.624 109.768C125.444 106.51 126.997 102.344 127 98.033C126.999 95.6695 126.533 93.3293 125.628 91.1464C124.723 88.9634 123.398 86.9806 121.727 85.3113C120.056 83.6419 118.073 82.3189 115.891 81.4178C113.709 80.5167 111.371 80.0554 109.01 80.06Z" fill="#ED6C1E"/>
</svg>
