<svg width="116" height="127" viewBox="0 0 116 127" fill="none" xmlns="http://www.w3.org/2000/svg">
<path fill-rule="evenodd" clip-rule="evenodd" d="M35.9399 109.01C35.9399 83.3615 58.3439 70.4779 82.4917 69.5834C83.5429 69.5645 84.5923 69.4893 85.6355 69.3584C92.1165 68.5215 98.2321 65.8841 103.286 61.7465C108.339 57.6088 112.128 52.1371 114.22 45.9546C115.415 42.3637 116.016 38.6023 116 34.8184C116.007 30.2527 115.114 25.7303 113.372 21.5094C111.629 17.2885 109.071 13.4518 105.843 10.2184C102.615 6.98507 98.7807 4.41844 94.5593 2.66514C90.3379 0.911844 85.812 0.0062165 81.2401 -1.5194e-06C62.0334 -2.35896e-06 45.917 15.5788 46.4805 34.8184C47.2042 61.2017 49.5116 84.7713 14.58 91.3523C13.4779 91.5832 12.3952 91.8981 11.3413 92.2942C8.0002 93.6342 5.13583 95.94 3.11525 98.9161C1.09467 101.892 0.00992123 105.403 2.86492e-06 108.998C0.0168562 109.885 0.0921201 110.77 0.225367 111.646C0.841265 115.907 2.97344 119.805 6.23155 122.624C9.48965 125.444 13.6557 126.997 17.967 127C20.3305 126.999 22.6707 126.533 24.8536 125.628C27.0366 124.723 29.0194 123.398 30.6887 121.727C32.3581 120.056 33.6811 118.073 34.5822 115.891C35.4832 113.709 35.9446 111.371 35.9399 109.01Z" fill="#ED6C1E"/>
</svg>
