<svg width="254" height="259" viewBox="0 0 254 259" fill="none" xmlns="http://www.w3.org/2000/svg">
<path fill-rule="evenodd" clip-rule="evenodd" d="M89.9774 184.884C94.3815 151.435 125.857 138.487 157.552 141.473C158.928 141.63 160.312 141.712 161.697 141.721C170.306 141.744 178.747 139.356 186.059 134.83C193.37 130.303 199.258 123.819 203.052 116.116C205.23 111.639 206.661 106.837 207.289 101.899C208.083 95.9465 207.693 89.8952 206.142 84.091C204.59 78.2868 201.907 72.8433 198.246 68.0716C194.585 63.2999 190.018 59.2933 184.805 56.2808C179.592 53.2684 173.836 51.309 167.865 50.5145C142.778 47.2113 119.052 64.7559 116.485 89.9431C112.9 124.474 111.866 155.608 65.1096 158.183C63.6304 158.294 62.1621 158.519 60.7176 158.854C56.1233 160.027 51.986 162.541 48.8358 166.075C45.6855 169.608 43.6658 174 43.0355 178.687C42.9052 179.846 42.8517 181.013 42.8752 182.179C42.948 187.842 45.0638 193.291 48.8353 197.528C52.6068 201.766 57.7817 204.508 63.4125 205.253C66.4998 205.659 69.6365 205.453 72.6432 204.649C75.6499 203.844 78.4675 202.456 80.9348 200.564C83.4022 198.672 85.4709 196.314 87.0225 193.623C88.5741 190.932 89.5782 187.963 89.9774 184.884Z" fill="#7B61FF"/>
<circle cx="136" cy="189" r="9" fill="white" fill-opacity="0.5"/>
</svg>
