<svg width="100" height="100" viewBox="0 0 100 100" fill="none" xmlns="http://www.w3.org/2000/svg">
<path d="M50 100C77.6142 100 100 77.6142 100 50C100 22.3858 77.6142 0 50 0C22.3858 0 0 22.3858 0 50C0 77.6142 22.3858 100 50 100Z" fill="white"/>
<path d="M51.1308 48.688C52.7308 48.688 54.2188 48.96 55.5948 49.504C56.9708 50.016 58.1548 50.752 59.1468 51.712C60.1388 52.672 60.9068 53.824 61.4508 55.168C62.0268 56.512 62.3148 58 62.3148 59.632C62.3148 61.36 61.9948 62.928 61.3548 64.336C60.7468 65.744 59.8828 66.944 58.7628 67.936C57.6428 68.96 56.3148 69.744 54.7788 70.288C53.2428 70.864 51.5788 71.152 49.7868 71.152C47.2908 71.152 45.0508 70.624 43.0668 69.568C41.1148 68.512 39.6268 67.072 38.6028 65.248L42.2988 61.408C43.1948 62.656 44.3148 63.648 45.6588 64.384C47.0028 65.12 48.3948 65.488 49.8348 65.488C51.5628 65.488 52.9708 64.976 54.0588 63.952C55.1788 62.896 55.7388 61.504 55.7388 59.776C55.7388 58.112 55.2108 56.768 54.1548 55.744C53.1308 54.72 51.8188 54.208 50.2188 54.208C49.1628 54.208 48.1708 54.448 47.2428 54.928C46.3468 55.408 45.6268 56.064 45.0828 56.896H39.4668C39.4668 56.8 39.5308 56.448 39.6588 55.84C39.7868 55.2 39.9468 54.4 40.1388 53.44C40.3308 52.448 40.5388 51.36 40.7628 50.176C40.9868 48.96 41.2268 47.728 41.4828 46.48C42.0588 43.536 42.6988 40.24 43.4028 36.592H60.2028V42.448H48.0588L46.6668 50.08C47.0508 49.664 47.6108 49.328 48.3468 49.072C49.1148 48.816 50.0428 48.688 51.1308 48.688Z" fill="#2D3E50"/>
</svg>
